<svg class="svg-icon" style="width: 40px; height: 40px;vertical-align: middle;fill: currentColor;overflow: hidden;" viewBox="0 0 1024 1024" version="1.1" xmlns="http://www.w3.org/2000/svg"><path d="M768.853333 785.066667a17.066667 17.066667 0 0 1-17.066666-17.066667v-133.12c-1.041067-52.462933-19.7632-96.3584-57.275734-133.853867-37.495467-37.495467-81.117867-56.234667-133.358933-57.2928H297.7792l145.1008 142.267734a17.066667 17.066667 0 0 1-23.893333 24.3712L244.0704 438.869333l-0.068267-0.068266-0.0512-0.0512-0.034133-0.017067-0.034133-0.034133-0.034134-0.034134-0.017066-0.017066a17.015467 17.015467 0 0 1-0.682667-23.125334c0.290133-0.341333 0.597333-0.648533 0.904533-0.955733l170.581334-170.581333a17.0496 17.0496 0 1 1 24.132266 24.132266L297.198933 409.6H561.493333c60.962133 1.2288 113.7152 23.876267 157.1328 67.293867 43.451733 43.400533 66.082133 96.4608 67.2768 157.661866V768a17.032533 17.032533 0 0 1-17.0496 17.066667z"  /></svg>