<svg class="svg-icon" style="width: 25px; height: 25px;vertical-align: middle;fill: currentColor;overflow: hidden;" viewBox="0 0 1024 1024" version="1.1" xmlns="http://www.w3.org/2000/svg"><path d="M837.462536 324.6838c0.409322-5.525853 0.818645-11.051707 0.818645-16.679891 0-135.178749-109.596094-244.774843-244.774843-244.774843-94.14417 0-175.701674 53.211922-216.633922 131.085524-15.144932-5.525853-31.4155-8.595772-48.504714-8.595772-78.896908 0-142.751215 63.956637-142.751215 142.751215 0 10.233062 1.125637 20.261463 3.172249 29.880541-72.961732 24.252357-125.559671 93.018533-125.559671 174.064384 0 101.409644 82.171488 183.581132 183.581132 183.581132l183.581132 0c11.256368 0 20.363793-9.107425 20.363793-20.363793s-9.107425-20.363793-20.363793-20.363793l-183.581132 0c-78.692247 0-142.751215-64.058968-142.751215-142.751215 0-61.500703 39.192627-115.940592 97.725742-135.38341l34.58775-11.56336-7.572466-35.713386c-1.534959-7.163143-2.251274-14.326287-2.251274-21.3871 0-56.281841 45.741787-102.023628 102.023628-102.023628 11.665691 0 23.229051 2.046612 34.58775 6.242168l33.462113 12.075013 16.57756-31.517831c35.304064-67.333548 104.479563-109.186771 180.408883-109.186771 112.461351 0 203.944925 91.483574 203.944925 203.944925 0 3.581572-0.306992 7.060813-0.511653 10.540054l-0.204661 3.479241-1.841951 28.754904 26.4013 11.358699c59.863413 25.889647 98.646718 84.729753 98.646718 149.812027 0 89.948615-73.166393 163.217339-163.217339 163.217339l-163.217339 0c-11.256368 0-20.363793 9.107425-20.363793 20.363793s9.107425 20.363793 20.363793 20.363793l163.217339 0c112.666012 0 203.944925-91.278913 203.944925-203.944925C960.770933 428.037726 910.014946 355.99697 837.462536 324.6838M634.336256 552.778752c11.256368 0 20.363793-9.107425 20.363793-20.363793 0-5.628184-2.251274-10.744715-5.935176-14.428617l-122.387421-122.387421c-3.683902-3.683902-8.800433-5.935176-14.428617-5.935176-5.628184 0-10.744715 2.251274-14.428617 5.935176l-122.387421 122.387421c-3.683902 3.683902-5.935176 8.800433-5.935176 14.428617 0 11.256368 9.107425 20.363793 20.363793 20.363793 5.628184 0 10.744715-2.251274 14.428617-5.935176l87.595011-87.595011 0 481.158574c0 11.256368 9.107425 20.363793 20.363793 20.363793 11.256368 0 20.363793-9.107425 20.363793-20.363793l0-481.158574 87.595011 87.595011C623.591541 550.527478 628.708072 552.778752 634.336256 552.778752"  /></svg>